<?xml version="1.0" encoding="UTF-8"?>
<svg width="24px" height="24px" viewBox="0 0 24 24" version="1.1" xmlns="http://www.w3.org/2000/svg">
    <g stroke="none" stroke-width="1" fill="none" fill-rule="evenodd">
        <path d="M13,6 L11,6 L11,3 L13,3 L13,6 Z M19.03,7.39 L20.45,5.97 C20,5.46 19.55,5 19.04,4.56 L17.62,5.98 C16.07,4.74 14.12,4 12,4 C7.03,4 3,8.03 3,13 C3,17.97 7.02,22 12,22 C16.98,22 21,17.97 21,13 C21,10.88 20.26,8.93 19.03,7.39 Z M12,20 C8.13,20 5,16.87 5,13 C5,9.13 8.13,6 12,6 C15.87,6 19,9.13 19,13 C19,16.87 15.87,20 12,20 Z M12,8 C9.24,8 7,10.24 7,13 C7,15.76 9.24,18 12,18 C14.76,18 17,15.76 17,13 C17,10.24 14.76,8 12,8 Z" fill="currentColor"/>
    </g>
</svg> 